<svg xmlns="http://www.w3.org/2000/svg" width="48" height="48" viewBox="0 0 24 24" fill="none">
  <!-- Head outline in black -->
  <ellipse cx="12" cy="11" rx="8" ry="9" stroke="#000000" stroke-width="1.5" fill="none"/>
  <!-- Electrode dots in mixed Julia colors - no stroke, larger fill -->
  <!-- Top row -->
  <circle cx="12" cy="3.5" r="1" fill="#CB3C33" stroke="none"/>
  <!-- Second row -->
  <circle cx="8" cy="5" r="1" fill="#389826" stroke="none"/>
  <circle cx="12" cy="5.5" r="1" fill="#9558B2" stroke="none"/>
  <circle cx="16" cy="5" r="1" fill="#CB3C33" stroke="none"/>
  <!-- Third row -->
  <circle cx="5.5" cy="8" r="1" fill="#9558B2" stroke="none"/>
  <circle cx="9" cy="8" r="1" fill="#CB3C33" stroke="none"/>
  <circle cx="12" cy="8" r="1" fill="#389826" stroke="none"/>
  <circle cx="15" cy="8" r="1" fill="#9558B2" stroke="none"/>
  <circle cx="18.5" cy="8" r="1" fill="#CB3C33" stroke="none"/>
  <!-- Fourth row (widest) -->
  <circle cx="4.5" cy="11" r="1" fill="#389826" stroke="none"/>
  <circle cx="7.5" cy="11" r="1" fill="#9558B2" stroke="none"/>
  <circle cx="10.5" cy="11" r="1" fill="#CB3C33" stroke="none"/>
  <circle cx="13.5" cy="11" r="1" fill="#389826" stroke="none"/>
  <circle cx="16.5" cy="11" r="1" fill="#9558B2" stroke="none"/>
  <circle cx="19.5" cy="11" r="1" fill="#CB3C33" stroke="none"/>
  <!-- Fifth row -->
  <circle cx="5.5" cy="14" r="1" fill="#CB3C33" stroke="none"/>
  <circle cx="9" cy="14" r="1" fill="#389826" stroke="none"/>
  <circle cx="12" cy="14" r="1" fill="#9558B2" stroke="none"/>
  <circle cx="15" cy="14" r="1" fill="#CB3C33" stroke="none"/>
  <circle cx="18.5" cy="14" r="1" fill="#389826" stroke="none"/>
  <!-- Sixth row -->
  <circle cx="8" cy="17" r="1" fill="#9558B2" stroke="none"/>
  <circle cx="12" cy="17" r="1" fill="#CB3C33" stroke="none"/>
  <circle cx="16" cy="17" r="1" fill="#389826" stroke="none"/>
</svg>
