<svg xmlns="http://www.w3.org/2000/svg" width="48" height="48" viewBox="0 0 24 24" fill="none">
  <!-- Epoch segments - stacked noisy waveforms like EEG trials -->
  <polyline points="2,3 3,4 4,2 5,4 6,3 7,5 8,2 9,4 10,3 11,5 12,2 13,4 14,3 15,5 16,2 17,4 18,3 19,5 20,3 21,4 22,3" stroke="#CB3C33" stroke-width="0.8" fill="none"/>
  <polyline points="2,6 3,7 4,5 5,8 6,6 7,7 8,5 9,8 10,6 11,7 12,5 13,8 14,6 15,7 16,5 17,8 18,6 19,7 20,5 21,7 22,6" stroke="#389826" stroke-width="0.8" fill="none"/>
  <polyline points="2,9 3,11 4,8 5,10 6,9 7,11 8,8 9,10 10,9 11,11 12,8 13,10 14,9 15,11 16,8 17,10 18,9 19,11 20,8 21,10 22,9" stroke="#9558B2" stroke-width="0.8" fill="none"/>
  <polyline points="2,12 3,14 4,11 5,13 6,12 7,14 8,11 9,13 10,12 11,14 12,11 13,13 14,12 15,14 16,11 17,13 18,12 19,14 20,11 21,13 22,12" stroke="#CB3C33" stroke-width="0.8" fill="none"/>
  <polyline points="2,15 3,17 4,14 5,16 6,15 7,17 8,14 9,16 10,15 11,17 12,14 13,16 14,15 15,17 16,14 17,16 18,15 19,17 20,14 21,16 22,15" stroke="#389826" stroke-width="0.8" fill="none"/>
  <polyline points="2,18 3,20 4,17 5,19 6,18 7,20 8,17 9,19 10,18 11,20 12,17 13,19 14,18 15,20 16,17 17,19 18,18 19,20 20,17 21,19 22,18" stroke="#9558B2" stroke-width="0.8" fill="none"/>
  <polyline points="2,21 3,23 4,20 5,22 6,21 7,23 8,20 9,22 10,21 11,23 12,20 13,22 14,21 15,23 16,20 17,22 18,21 19,23 20,20 21,22 22,21" stroke="#CB3C33" stroke-width="0.8" fill="none"/>
  <!-- Vertical time marker -->
  <line x1="12" y1="1" x2="12" y2="23" stroke="#000000" stroke-width="0.8" stroke-dasharray="1,1"/>
</svg>
