<svg xmlns="http://www.w3.org/2000/svg" width="48" height="48" viewBox="0 0 24 24" fill="none">
  <!-- 2x2 Plot grid -->
  <!-- Grid borders -->
  <rect x="2" y="2" width="9" height="9" stroke="#000000" stroke-width="0.5" fill="none"/>
  <rect x="13" y="2" width="9" height="9" stroke="#000000" stroke-width="0.5" fill="none"/>
  <rect x="2" y="13" width="9" height="9" stroke="#000000" stroke-width="0.5" fill="none"/>
  <rect x="13" y="13" width="9" height="9" stroke="#000000" stroke-width="0.5" fill="none"/>
  
  <!-- Top-left: Line plot -->
  <polyline points="3,9 4,7 5,8 6,5 7,6 8,4 9,5 10,6" stroke="#CB3C33" stroke-width="0.6" fill="none"/>
  
  <!-- Top-right: Bar chart -->
  <rect x="14" y="7" width="1.5" height="3" fill="#389826"/>
  <rect x="16" y="5" width="1.5" height="5" fill="#9558B2"/>
  <rect x="18" y="6" width="1.5" height="4" fill="#CB3C33"/>
  <rect x="20" y="4" width="1.5" height="6" fill="#389826"/>
  
  <!-- Bottom-left: Scatter plot -->
  <circle cx="4" cy="15" r="0.6" fill="#9558B2"/>
  <circle cx="5.5" cy="17" r="0.6" fill="#9558B2"/>
  <circle cx="6" cy="15.5" r="0.6" fill="#9558B2"/>
  <circle cx="7.5" cy="19" r="0.6" fill="#9558B2"/>
  <circle cx="8" cy="16" r="0.6" fill="#9558B2"/>
  <circle cx="9" cy="18" r="0.6" fill="#9558B2"/>
  <circle cx="10" cy="20" r="0.6" fill="#9558B2"/>
  
  <!-- Bottom-right: Heatmap/TF -->
  <rect x="13.5" y="13.5" width="2" height="2" fill="#CB3C33"/>
  <rect x="15.5" y="13.5" width="2" height="2" fill="#389826"/>
  <rect x="17.5" y="13.5" width="2" height="2" fill="#9558B2"/>
  <rect x="19.5" y="13.5" width="2" height="2" fill="#CB3C33"/>
  <rect x="13.5" y="15.5" width="2" height="2" fill="#9558B2"/>
  <rect x="15.5" y="15.5" width="2" height="2" fill="#CB3C33"/>
  <rect x="17.5" y="15.5" width="2" height="2" fill="#389826"/>
  <rect x="19.5" y="15.5" width="2" height="2" fill="#9558B2"/>
  <rect x="13.5" y="17.5" width="2" height="2" fill="#389826"/>
  <rect x="15.5" y="17.5" width="2" height="2" fill="#9558B2"/>
  <rect x="17.5" y="17.5" width="2" height="2" fill="#CB3C33"/>
  <rect x="19.5" y="17.5" width="2" height="2" fill="#389826"/>
  <rect x="13.5" y="19.5" width="2" height="2" fill="#CB3C33"/>
  <rect x="15.5" y="19.5" width="2" height="2" fill="#389826"/>
  <rect x="17.5" y="19.5" width="2" height="2" fill="#9558B2"/>
  <rect x="19.5" y="19.5" width="2" height="2" fill="#CB3C33"/>
</svg>
