v 0.0 -0.017 0.101
v -0.007 -0.019 0.101
v 0.0 -0.028 0.10200000000000001
v 0.011 -0.025 0.101
v 0.014 -0.013000000000000001 0.098
v 0.008 -0.003 0.097
v -0.004 0.0 0.097
v -0.015 -0.007 0.097
v -0.02 -0.018000000000000002 0.098
v -0.018000000000000002 -0.031 0.099
v -0.008 -0.04 0.1
v 0.005 -0.042 0.1
v 0.018000000000000002 -0.037 0.099
v 0.025 -0.026000000000000002 0.096
v 0.027 -0.014 0.094
v 0.023 -0.002 0.092
v 0.014 0.008 0.093
v 0.002 0.012 0.094
v -0.011 0.011 0.094
v -0.022 0.004 0.093
v -0.029 -0.006 0.092
v -0.032 -0.019 0.093
v -0.031 -0.032 0.094
v -0.025 -0.044 0.096
v -0.014 -0.053 0.097
v 0.0 -0.056 0.098
v 0.014 -0.055 0.097
v 0.026000000000000002 -0.048 0.096
v 0.035 -0.037 0.094
v 0.039 -0.024 0.091
v 0.038 -0.011 0.088
v 0.034 0.001 0.08700000000000001
v 0.027 0.011 0.08700000000000001
v 0.017 0.02 0.089
v 0.005 0.024 0.089
v -0.009000000000000001 0.024 0.089
v -0.021 0.019 0.088
v -0.031 0.011 0.08700000000000001
v -0.038 0.001 0.08600000000000001
v -0.043000000000000003 -0.012 0.08600000000000001
v -0.044 -0.025 0.08700000000000001
v -0.041 -0.038 0.089
v -0.036000000000000004 -0.051000000000000004 0.091
v -0.025 -0.061 0.092
v -0.013000000000000001 -0.067 0.092
v 0.002 -0.069 0.092
v 0.016 -0.068 0.092
v 0.03 -0.062 0.091
v 0.04 -0.052000000000000005 0.09
v 0.047 -0.04 0.088
v 0.05 -0.027 0.085
v 0.049 -0.013000000000000001 0.082
v 0.046 -0.001 0.081
v 0.041 0.011 0.08
v 0.033 0.021 0.082
v 0.023 0.03 0.083
v 0.011 0.036000000000000004 0.084
v -0.003 0.037 0.083
v -0.017 0.035 0.083
v -0.029 0.028 0.082
v -0.038 0.019 0.08
v -0.045 0.008 0.078
v -0.051000000000000004 -0.003 0.078
v -0.054 -0.016 0.078
v -0.054 -0.029 0.079
v -0.051000000000000004 -0.043000000000000003 0.081
v -0.045 -0.056 0.082
v -0.036000000000000004 -0.067 0.083
v -0.024 -0.074 0.083
v -0.01 -0.079 0.083
v 0.004 -0.081 0.083
v 0.019 -0.079 0.083
v 0.032 -0.073 0.083
v 0.044 -0.064 0.081
v 0.052000000000000005 -0.053 0.079
v 0.058 -0.04 0.078
v 0.06 -0.027 0.076
v 0.059000000000000004 -0.013000000000000001 0.074
v 0.056 -0.001 0.073
v 0.052000000000000005 0.011 0.073
v 0.045 0.023 0.074
v 0.036000000000000004 0.033 0.074
v 0.026000000000000002 0.042 0.076
v 0.013000000000000001 0.047 0.076
v -0.001 0.048 0.076
v -0.015 0.046 0.075
v -0.028 0.041 0.074
v -0.039 0.033 0.07200000000000001
v -0.048 0.022 0.07100000000000001
v -0.054 0.011 0.07
v -0.058 -0.001 0.068
v -0.062 -0.014 0.069
v -0.063 -0.027 0.07
v -0.062 -0.041 0.07100000000000001
v -0.057 -0.054 0.07200000000000001
v -0.049 -0.065 0.07200000000000001
v -0.04 -0.077 0.073
v -0.027 -0.083 0.073
v -0.014 -0.088 0.07200000000000001
v 0.001 -0.09 0.07200000000000001
v 0.015 -0.089 0.07200000000000001
v 0.03 -0.085 0.07200000000000001
v 0.042 -0.078 0.07200000000000001
v 0.053 -0.068 0.07100000000000001
v 0.06 -0.056 0.069
v 0.066 -0.043000000000000003 0.068
v 0.069 -0.03 0.067
v 0.068 -0.016 0.065
v 0.066 -0.003 0.063
v 0.062 0.009000000000000001 0.063
v 0.056 0.021 0.063
v 0.049 0.033 0.064
v 0.039 0.042 0.065
v 0.028 0.051000000000000004 0.066
v 0.015 0.057 0.067
v 0.001 0.059000000000000004 0.066
v -0.014 0.057 0.066
v -0.027 0.052000000000000005 0.064
v -0.039 0.044 0.063
v -0.049 0.035 0.061
v -0.057 0.024 0.06
v -0.062 0.012 0.059000000000000004
v -0.068 0.0 0.059000000000000004
v -0.07 -0.013000000000000001 0.059000000000000004
v -0.07100000000000001 -0.026000000000000002 0.059000000000000004
v -0.069 -0.04 0.06
v -0.066 -0.053 0.06
v -0.059000000000000004 -0.066 0.061
v -0.051000000000000004 -0.077 0.061
v -0.039 -0.085 0.061
v -0.026000000000000002 -0.093 0.061
v -0.012 -0.096 0.06
v 0.002 -0.096 0.06
v 0.017 -0.096 0.06
v 0.031 -0.093 0.06
v 0.044 -0.08600000000000001 0.059000000000000004
v 0.055 -0.076 0.059000000000000004
v 0.064 -0.065 0.058
v 0.07 -0.052000000000000005 0.056
v 0.075 -0.039 0.056
v 0.076 -0.025 0.055
v 0.076 -0.012 0.054
v 0.073 0.002 0.053
v 0.069 0.014 0.053
v 0.063 0.026000000000000002 0.053
v 0.055 0.038 0.053
v 0.046 0.049 0.054
v 0.035 0.059000000000000004 0.055
v 0.022 0.065 0.056
v 0.007 0.068 0.055
v -0.008 0.068 0.055
v -0.023 0.065 0.054
v -0.036000000000000004 0.058 0.053
v -0.047 0.048 0.052000000000000005
v -0.056 0.038 0.05
v -0.063 0.026000000000000002 0.049
v -0.07 0.014 0.049
v -0.074 0.002 0.048
v -0.075 -0.011 0.047
v -0.077 -0.025 0.048
v -0.076 -0.038 0.048
v -0.07200000000000001 -0.051000000000000004 0.048
v -0.067 -0.065 0.048
v -0.059000000000000004 -0.077 0.049
v -0.049 -0.08700000000000001 0.049
v -0.037 -0.095 0.048
v -0.023 -0.1 0.048
v -0.009000000000000001 -0.10300000000000001 0.048
v 0.006 -0.10200000000000001 0.047
v 0.021 -0.101 0.047
v 0.035 -0.097 0.047
v 0.048 -0.091 0.046
v 0.059000000000000004 -0.081 0.046
v 0.068 -0.07 0.045
v 0.075 -0.057 0.044
v 0.08 -0.044 0.044
v 0.082 -0.03 0.043000000000000003
v 0.081 -0.016 0.042
v 0.079 -0.003 0.041
v 0.077 0.01 0.041
v 0.07200000000000001 0.024 0.041
v 0.065 0.036000000000000004 0.041
v 0.057 0.047 0.042
v 0.047 0.059000000000000004 0.042
v 0.035 0.068 0.043000000000000003
v 0.021 0.075 0.043000000000000003
v 0.005 0.077 0.042
v -0.011 0.077 0.042
v -0.026000000000000002 0.073 0.041
v -0.039 0.065 0.04
v -0.051000000000000004 0.055 0.039
v -0.06 0.043000000000000003 0.038
v -0.067 0.031 0.037
v -0.074 0.019 0.037
v -0.078 0.006 0.036000000000000004
v -0.078 -0.007 0.035
v -0.08 -0.02 0.035
v -0.081 -0.034 0.035
v -0.078 -0.048 0.035
v -0.074 -0.061 0.035
v -0.067 -0.074 0.035
v -0.058 -0.085 0.035
v -0.048 -0.096 0.035
v -0.034 -0.10200000000000001 0.035
v -0.019 -0.106 0.034
v -0.005 -0.109 0.034
v 0.01 -0.108 0.034
v 0.025 -0.106 0.033
v 0.039 -0.101 0.033
v 0.052000000000000005 -0.094 0.033
v 0.062 -0.083 0.032
v 0.07 -0.07 0.031
v 0.078 -0.058 0.031
v 0.083 -0.045 0.03
v 0.084 -0.031 0.03
v 0.083 -0.017 0.029
v 0.082 -0.004 0.029
v 0.08 0.01 0.029
v 0.078 0.023 0.029
v 0.07100000000000001 0.036000000000000004 0.028
v 0.063 0.049 0.028
v 0.053 0.061 0.028
v 0.042 0.07200000000000001 0.028
v 0.027 0.079 0.028
v 0.012 0.084 0.028
v -0.005 0.084 0.028
v -0.021 0.081 0.027
v -0.036000000000000004 0.075 0.027
v -0.049 0.065 0.026000000000000002
v -0.059000000000000004 0.053 0.025
v -0.067 0.041 0.025
v -0.074 0.028 0.024
v -0.079 0.015 0.024
v -0.08 0.001 0.023
v -0.081 -0.012 0.023
v -0.083 -0.026000000000000002 0.022
v -0.083 -0.039 0.022
v -0.079 -0.053 0.022
v -0.073 -0.066 0.022
v -0.067 -0.08 0.021
v -0.058 -0.091 0.021
v -0.046 -0.101 0.021
v -0.033 -0.109 0.02
v -0.018000000000000002 -0.113 0.02
v -0.002 -0.113 0.02
v 0.014 -0.113 0.019
v 0.029 -0.111 0.019
v 0.043000000000000003 -0.10400000000000001 0.018000000000000002
v 0.055 -0.094 0.018000000000000002
v 0.065 -0.083 0.018000000000000002
v 0.073 -0.07 0.017
v 0.08 -0.058 0.017
v 0.084 -0.044 0.017
v 0.085 -0.03 0.016
v 0.084 -0.016 0.016
v 0.083 -0.003 0.016
v 0.082 0.011 0.015
v 0.08 0.026000000000000002 0.015
v 0.074 0.04 0.014
v 0.066 0.053 0.014
v 0.056 0.065 0.013000000000000001
v 0.042 0.074 0.013000000000000001
v 0.028 0.082 0.012
v 0.012 0.08600000000000001 0.012
v -0.005 0.08700000000000001 0.011
v -0.022 0.083 0.011
v -0.037 0.076 0.011
v -0.051000000000000004 0.068 0.01
v -0.061 0.056 0.01
v -0.069 0.042 0.01
v -0.076 0.029 0.01
v -0.08 0.015 0.01
v -0.081 0.001 0.01
v -0.082 -0.012 0.01
v -0.084 -0.026000000000000002 0.009000000000000001
v -0.085 -0.04 0.008
v -0.079 -0.053 0.008
v -0.074 -0.067 0.008
v -0.068 -0.081 0.007
v -0.059000000000000004 -0.094 0.006
v -0.047 -0.10400000000000001 0.005
v -0.032 -0.112 0.005
v -0.017 -0.116 0.004
v -0.001 -0.117 0.004
v 0.016 -0.116 0.004
v 0.031 -0.113 0.003
v 0.046 -0.106 0.003
v 0.058 -0.095 0.003
v 0.068 -0.083 0.003
v 0.074 -0.069 0.003
v 0.08 -0.055 0.003
v 0.08600000000000001 -0.042 0.002
v 0.08600000000000001 -0.027 0.003
v 0.085 -0.013000000000000001 0.003
v 0.083 0.0 0.002
v 0.082 0.015 0.001
v 0.079 0.03 0.0
v 0.073 0.044 -0.001
v 0.065 0.058 -0.002
v 0.054 0.07200000000000001 -0.004
v 0.039 0.08 -0.004
v 0.023 0.08600000000000001 -0.005
v 0.005 0.089 -0.006
v -0.012 0.088 -0.006
v -0.029 0.084 -0.006
v -0.045 0.077 -0.007
v -0.057 0.064 -0.006
v -0.066 0.05 -0.005
v -0.073 0.036000000000000004 -0.004
v -0.078 0.022 -0.004
v -0.081 0.007 -0.004
v -0.083 -0.007 -0.004
v -0.084 -0.021 -0.004
v -0.08700000000000001 -0.036000000000000004 -0.006
v -0.083 -0.05 -0.007
v -0.077 -0.064 -0.007
v -0.07 -0.078 -0.008
v -0.061 -0.091 -0.01
v -0.05 -0.10300000000000001 -0.011
v -0.035 -0.112 -0.012
v -0.019 -0.117 -0.012
v -0.002 -0.11900000000000001 -0.013000000000000001
v 0.015 -0.11800000000000001 -0.013000000000000001
v 0.031 -0.114 -0.014
v 0.047 -0.107 -0.014
v 0.059000000000000004 -0.095 -0.014
v 0.068 -0.081 -0.013000000000000001
v 0.076 -0.067 -0.012
v 0.082 -0.053 -0.012
v 0.08700000000000001 -0.039 -0.013000000000000001
v 0.08600000000000001 -0.024 -0.012
v 0.084 -0.01 -0.012
v 0.082 0.005 -0.012
v 0.081 0.02 -0.014
v 0.077 0.036000000000000004 -0.016
v 0.069 0.05 -0.018000000000000002
v 0.06 0.066 -0.021
v 0.047 0.079 -0.022
v 0.03 0.085 -0.023
v 0.012 0.088 -0.023
v -0.007 0.088 -0.024
v -0.025 0.085 -0.024
v -0.042 0.079 -0.024
v -0.057 0.069 -0.025
v -0.065 0.051000000000000004 -0.022
v -0.074 0.037 -0.021
v -0.079 0.022 -0.02
v -0.082 0.007 -0.019
v -0.083 -0.008 -0.019
v -0.085 -0.023 -0.02
v -0.088 -0.039 -0.023
v -0.081 -0.054 -0.022
v -0.075 -0.069 -0.024
v -0.067 -0.083 -0.025
v -0.056 -0.097 -0.028
v -0.042 -0.107 -0.029
v -0.026000000000000002 -0.116 -0.031
v -0.008 -0.117 -0.03
v 0.01 -0.117 -0.031
v 0.028 -0.115 -0.032
v 0.044 -0.107 -0.032
v 0.058 -0.096 -0.031
v 0.068 -0.082 -0.03
v 0.077 -0.067 -0.029
v 0.083 -0.052000000000000005 -0.029
v 0.088 -0.037 -0.029
v 0.08600000000000001 -0.02 -0.028
v 0.083 -0.005 -0.027
v 0.083 0.011 -0.03
v 0.081 0.028 -0.033
v 0.07200000000000001 0.043000000000000003 -0.034
v 0.06 0.055 -0.035
v 0.049 0.07 -0.039
v 0.031 0.076 -0.039
v 0.013000000000000001 0.077 -0.037
v -0.005 0.082 -0.041
v -0.022 0.074 -0.038
v -0.041 0.074 -0.043000000000000003
v -0.055 0.061 -0.04
v -0.066 0.046 -0.038
v -0.077 0.033 -0.04
v -0.083 0.017 -0.039
v -0.084 0.0 -0.037
v -0.084 -0.017 -0.036000000000000004
v -0.088 -0.034 -0.04
v -0.085 -0.051000000000000004 -0.042
v -0.076 -0.067 -0.042
v -0.067 -0.082 -0.044
v -0.056 -0.097 -0.047
v -0.04 -0.108 -0.05
v -0.022 -0.113 -0.05
v -0.003 -0.11900000000000001 -0.053
v 0.017 -0.114 -0.051000000000000004
v 0.035 -0.11 -0.052000000000000005
v 0.052000000000000005 -0.1 -0.052000000000000005
v 0.065 -0.08600000000000001 -0.05
v 0.077 -0.07100000000000001 -0.05
v 0.08600000000000001 -0.055 -0.051000000000000004
v 0.088 -0.037 -0.049
v 0.084 -0.019 -0.045
v 0.08600000000000001 -0.001 -0.049
v 0.085 0.017 -0.053
v 0.077 0.034 -0.054
v 0.067 0.05 -0.056
v 0.049 0.059000000000000004 -0.054
v 0.033 0.068 -0.055
v 0.016 0.081 -0.063
v -0.005 0.089 -0.07
v -0.023 0.069 -0.057
v -0.041 0.064 -0.059000000000000004
v -0.06 0.057 -0.064
v -0.073 0.042 -0.063
v -0.082 0.024 -0.062
v -0.088 0.006 -0.062
v -0.088 -0.014 -0.06
v -0.088 -0.033 -0.062
v -0.08700000000000001 -0.054 -0.068
v -0.076 -0.07100000000000001 -0.067
v -0.063 -0.08600000000000001 -0.068
v -0.047 -0.1 -0.07100000000000001
v -0.028 -0.109 -0.07200000000000001
v -0.007 -0.112 -0.07200000000000001
v 0.014 -0.11 -0.07200000000000001
v 0.034 -0.10400000000000001 -0.07200000000000001
v 0.052000000000000005 -0.094 -0.07200000000000001
v 0.067 -0.08 -0.07200000000000001
v 0.078 -0.063 -0.07200000000000001
v 0.085 -0.044 -0.07200000000000001
v 0.088 -0.023 -0.07200000000000001
v 0.08600000000000001 -0.003 -0.07200000000000001
v 0.079 0.016 -0.07200000000000001
v 0.069 0.033 -0.07200000000000001
v 0.055 0.047 -0.07200000000000001
v 0.038 0.056 -0.07200000000000001
v 0.019 0.062 -0.07200000000000001
v -0.001 0.063 -0.07200000000000001
v -0.02 0.06 -0.07200000000000001
v -0.037 0.052000000000000005 -0.07200000000000001
v -0.053 0.04 -0.07200000000000001
v -0.064 0.024 -0.07200000000000001
v -0.07100000000000001 0.007 -0.07200000000000001
v -0.074 -0.012 -0.07200000000000001
v -0.07200000000000001 -0.031 -0.07200000000000001
v -0.066 -0.048 -0.07200000000000001
v -0.055 -0.063 -0.07200000000000001
v -0.041 -0.075 -0.07200000000000001
v -0.024 -0.083 -0.07200000000000001
v -0.006 -0.08700000000000001 -0.07200000000000001
v 0.012 -0.085 -0.07200000000000001
v 0.029 -0.079 -0.07200000000000001
v 0.044 -0.068 -0.07200000000000001
v 0.055 -0.054 -0.07200000000000001
v 0.062 -0.037 -0.07200000000000001
v 0.064 -0.02 -0.07200000000000001
v 0.061 -0.002 -0.07200000000000001
v 0.054 0.014 -0.07200000000000001
v 0.042 0.027 -0.07200000000000001
v 0.027 0.036000000000000004 -0.07200000000000001
v 0.011 0.041 -0.07200000000000001
v -0.007 0.04 -0.07200000000000001
v -0.023 0.035 -0.07200000000000001
v -0.037 0.025 -0.07200000000000001
v -0.047 0.011 -0.07200000000000001
v -0.052000000000000005 -0.005 -0.07200000000000001
v -0.053 -0.022 -0.07200000000000001
v -0.048 -0.038 -0.07200000000000001
v -0.038 -0.052000000000000005 -0.07200000000000001
v -0.024 -0.062 -0.07200000000000001
v -0.008 -0.066 -0.07200000000000001
v 0.008 -0.065 -0.07200000000000001
v 0.024 -0.059000000000000004 -0.07200000000000001
v 0.036000000000000004 -0.048 -0.07200000000000001
v 0.043000000000000003 -0.033 -0.07200000000000001
v 0.045 -0.017 -0.07200000000000001
v 0.041 -0.002 -0.07200000000000001
v 0.032 0.012 -0.07200000000000001
v 0.018000000000000002 0.02 -0.07200000000000001
v 0.002 0.023 -0.07200000000000001
v -0.013000000000000001 0.019 -0.07200000000000001
v -0.026000000000000002 0.01 -0.07200000000000001
v -0.034 -0.004 -0.07200000000000001
v -0.035 -0.019 -0.07200000000000001
v -0.03 -0.034 -0.07200000000000001
v -0.019 -0.045 -0.07200000000000001
v -0.004 -0.05 -0.07200000000000001
v 0.011 -0.047 -0.07200000000000001
v 0.023 -0.038 -0.07200000000000001
v 0.029 -0.023 -0.07200000000000001
v 0.026000000000000002 -0.008 -0.07200000000000001
v 0.016 0.003 -0.07200000000000001
v 0.002 0.007 -0.07200000000000001
v -0.013000000000000001 0.002 -0.07200000000000001
v -0.02 -0.011 -0.07200000000000001
v -0.018000000000000002 -0.026000000000000002 -0.07200000000000001
v -0.005 -0.035 -0.07200000000000001
v 0.009000000000000001 -0.031 -0.07200000000000001
v 0.015 -0.017 -0.07200000000000001
v 0.003 -0.006 -0.07200000000000001
v -0.008 -0.017 -0.07200000000000001
v 0.0 -0.017 -0.07200000000000001
f 142 179 178
f 216 177 178
f 254 216 255
f 26 27 46
f 129 130 165
f 141 142 178
f 177 141 178
f 212 213 251
f 213 176 214
f 285 246 247
f 215 177 216
f 254 215 216
f 176 215 214
f 215 176 177
f 179 217 178
f 217 216 178
f 216 217 255
f 217 256 255
f 370 369 334
f 369 370 402
f 292 293 330
f 293 292 254
f 293 254 255
f 453 473 452
f 148 149 185
f 188 187 151
f 59 87 86
f 23 10 24
f 43 23 24
f 21 9 22
f 9 23 22
f 23 9 10
f 4 3 1
f 10 11 24
f 3 11 10
f 7 6 1
f 422 423 448
f 392 359 393
f 423 392 393
f 392 423 422
f 353 354 388
f 130 166 165
f 97 129 96
f 97 130 129
f 130 97 98
f 68 97 96
f 378 379 410
f 379 378 344
f 492 491 479
f 379 411 410
f 439 411 412
f 307 268 269
f 224 223 185
f 184 148 185
f 223 184 185
f 142 143 179
f 145 146 182
f 145 144 111
f 145 111 112
f 146 145 112
f 72 73 102
f 77 51 52
f 176 175 139
f 175 176 213
f 175 138 139
f 138 175 174
f 175 213 212
f 174 175 212
f 140 176 139
f 106 140 139
f 140 141 177
f 176 140 177
f 141 140 107
f 140 106 107
f 103 136 102
f 73 103 102
f 246 208 247
f 136 135 102
f 246 284 245
f 285 284 246
f 284 283 245
f 283 284 322
f 323 285 324
f 323 359 322
f 284 323 322
f 323 284 285
f 361 360 324
f 360 323 324
f 323 360 359
f 394 360 361
f 359 360 393
f 360 394 393
f 325 361 324
f 287 325 324
f 249 287 248
f 286 287 324
f 286 285 247
f 285 286 324
f 248 286 247
f 287 286 248
f 335 370 334
f 335 298 336
f 371 335 336
f 335 371 370
f 262 261 223
f 262 224 263
f 224 262 223
f 301 262 263
f 261 262 300
f 262 301 300
f 299 261 300
f 298 299 336
f 337 299 300
f 299 337 336
f 432 403 404
f 370 403 402
f 403 371 404
f 371 403 370
f 433 432 404
f 457 433 458
f 433 457 432
f 473 474 488
f 457 456 432
f 403 431 402
f 431 403 432
f 456 431 432
f 213 252 251
f 252 213 214
f 365 329 330
f 329 292 330
f 292 253 254
f 215 253 214
f 253 215 254
f 253 252 214
f 367 331 332
f 293 331 330
f 366 365 330
f 331 366 330
f 366 331 367
f 369 333 334
f 295 333 332
f 368 367 332
f 333 368 332
f 368 333 369
f 367 368 400
f 294 295 332
f 331 294 332
f 294 331 293
f 294 293 255
f 256 294 255
f 295 294 256
f 364 329 365
f 395 394 361
f 363 362 326
f 362 325 326
f 325 362 361
f 362 395 361
f 362 363 396
f 395 362 396
f 327 363 326
f 428 429 453
f 430 429 400
f 57 34 35
f 34 57 56
f 57 85 84
f 303 264 265
f 338 301 339
f 338 337 300
f 301 338 300
f 149 186 185
f 186 224 185
f 187 150 151
f 186 150 187
f 150 186 149
f 114 149 148
f 113 114 148
f 82 113 112
f 188 226 187
f 264 226 265
f 87 60 88
f 59 60 87
f 9 2 10
f 2 3 10
f 3 2 1
f 2 7 1
f 44 43 24
f 44 68 43
f 34 18 35
f 18 34 17
f 6 18 17
f 7 18 6
f 5 4 1
f 6 5 1
f 66 94 65
f 163 162 127
f 278 277 239
f 277 278 316
f 240 278 239
f 277 238 239
f 63 90 62
f 90 89 62
f 89 90 121
f 119 87 88
f 266 228 267
f 271 272 310
f 233 272 271
f 67 68 96
f 68 67 43
f 42 66 65
f 42 23 43
f 67 42 43
f 42 67 66
f 497 496 488
f 496 497 500
f 471 470 450
f 470 449 450
f 449 470 448
f 423 449 448
f 391 392 422
f 353 352 316
f 467 468 484
f 354 355 388
f 378 343 344
f 461 462 479
f 377 343 378
f 483 467 484
f 494 483 484
f 462 480 479
f 480 492 479
f 338 373 337
f 498 491 492
f 498 499 500
f 499 498 492
f 497 498 500
f 347 346 310
f 346 347 381
f 381 413 412
f 184 147 148
f 147 113 148
f 147 146 112
f 113 147 112
f 146 183 182
f 183 221 182
f 147 183 146
f 183 147 184
f 261 222 223
f 222 184 223
f 222 183 184
f 183 222 221
f 109 143 142
f 71 70 46
f 70 71 100
f 101 72 102
f 135 101 102
f 71 101 100
f 101 71 72
f 72 47 73
f 27 47 46
f 47 71 46
f 71 47 72
f 51 30 52
f 76 51 77
f 76 77 107
f 106 76 107
f 13 28 27
f 28 13 29
f 49 28 29
f 13 14 29
f 14 30 29
f 30 14 15
f 14 13 4
f 5 14 4
f 14 5 15
f 12 11 3
f 12 3 4
f 13 12 4
f 11 12 26
f 26 12 27
f 12 13 27
f 103 74 104
f 74 103 73
f 50 49 29
f 30 50 29
f 50 30 51
f 76 50 51
f 138 137 104
f 173 137 174
f 137 138 174
f 137 103 104
f 103 137 136
f 136 137 172
f 137 173 172
f 97 69 98
f 69 97 68
f 44 69 68
f 131 132 167
f 166 131 167
f 131 166 130
f 131 130 98
f 99 70 100
f 132 99 100
f 69 99 98
f 99 69 70
f 99 131 98
f 131 99 132
f 171 208 170
f 135 171 170
f 171 136 172
f 171 135 136
f 208 207 170
f 207 208 246
f 207 246 245
f 206 207 245
f 133 132 100
f 101 133 100
f 168 205 167
f 168 206 205
f 132 168 167
f 133 168 132
f 424 423 393
f 394 424 393
f 449 424 450
f 424 449 423
f 395 424 394
f 249 288 287
f 325 288 326
f 288 325 287
f 250 212 251
f 250 288 249
f 210 249 248
f 173 210 172
f 333 296 334
f 296 333 295
f 405 433 404
f 405 373 406
f 433 434 458
f 434 405 406
f 405 434 433
f 456 476 475
f 476 456 457
f 366 399 365
f 429 399 400
f 399 429 428
f 399 367 400
f 399 366 367
f 401 430 400
f 368 401 400
f 431 401 402
f 401 431 430
f 401 369 402
f 401 368 369
f 397 426 396
f 363 397 396
f 364 397 363
f 329 291 292
f 291 253 292
f 253 291 252
f 364 328 329
f 328 291 329
f 328 364 363
f 327 328 363
f 429 454 453
f 454 473 453
f 454 474 473
f 454 429 430
f 117 85 86
f 58 59 86
f 85 58 86
f 57 58 85
f 58 57 35
f 302 301 263
f 264 302 263
f 303 302 264
f 301 302 339
f 85 116 84
f 117 116 85
f 150 116 151
f 116 117 151
f 115 114 84
f 114 115 149
f 116 115 84
f 115 150 149
f 115 116 150
f 83 114 113
f 82 83 113
f 83 82 56
f 114 83 84
f 57 83 56
f 83 57 84
f 80 53 54
f 53 32 54
f 81 80 54
f 81 82 112
f 111 81 112
f 80 81 111
f 34 33 17
f 32 33 54
f 16 32 15
f 5 16 15
f 33 16 17
f 16 33 32
f 16 6 17
f 16 5 6
f 225 226 264
f 225 264 263
f 224 225 263
f 226 225 187
f 225 186 187
f 186 225 224
f 25 44 24
f 11 25 24
f 25 11 26
f 70 45 46
f 25 45 44
f 69 45 70
f 45 69 44
f 45 26 46
f 45 25 26
f 95 94 66
f 95 67 96
f 67 95 66
f 94 95 127
f 161 162 199
f 158 157 123
f 157 158 195
f 164 129 165
f 128 163 127
f 129 128 96
f 164 128 129
f 128 164 163
f 128 95 96
f 95 128 127
f 238 200 239
f 200 238 199
f 162 200 199
f 163 200 162
f 279 278 240
f 91 90 63
f 155 120 121
f 120 119 88
f 119 120 154
f 120 155 154
f 89 120 88
f 120 89 121
f 229 268 267
f 228 229 267
f 227 226 188
f 227 228 266
f 227 266 265
f 226 227 265
f 192 155 193
f 231 192 193
f 155 192 154
f 273 274 312
f 274 273 235
f 233 194 195
f 194 157 195
f 232 233 271
f 232 231 193
f 194 232 193
f 232 194 233
f 155 156 193
f 156 155 121
f 156 194 193
f 194 156 157
f 90 122 121
f 122 156 121
f 156 122 157
f 157 122 123
f 122 91 123
f 91 122 90
f 41 42 65
f 64 41 65
f 23 41 22
f 42 41 23
f 94 93 65
f 93 64 65
f 471 486 470
f 495 494 484
f 495 486 496
f 495 499 494
f 495 496 500
f 499 495 500
f 451 471 450
f 451 426 452
f 487 486 471
f 487 473 488
f 496 487 488
f 486 487 496
f 391 358 392
f 359 358 322
f 392 358 359
f 387 352 353
f 418 387 388
f 387 353 388
f 274 313 312
f 315 277 316
f 352 315 316
f 445 444 418
f 420 389 390
f 355 389 388
f 419 418 388
f 389 419 388
f 419 389 420
f 419 445 418
f 421 391 422
f 420 421 447
f 391 421 390
f 421 420 390
f 421 422 448
f 447 421 448
f 468 485 484
f 486 485 470
f 485 495 484
f 495 485 486
f 356 355 319
f 389 356 390
f 356 389 355
f 283 244 245
f 244 206 245
f 206 244 205
f 166 203 165
f 268 306 267
f 306 268 307
f 306 307 344
f 343 306 344
f 305 306 343
f 305 266 267
f 306 305 267
f 438 439 462
f 461 438 462
f 411 438 410
f 438 411 439
f 438 437 410
f 438 461 437
f 491 478 479
f 499 493 494
f 493 499 492
f 480 493 492
f 493 480 481
f 483 466 467
f 466 445 467
f 445 466 444
f 371 372 404
f 372 405 404
f 405 372 373
f 373 372 337
f 337 372 336
f 372 371 336
f 374 338 339
f 374 373 338
f 373 374 406
f 375 374 339
f 340 375 339
f 302 340 339
f 340 302 303
f 340 303 341
f 309 271 310
f 346 309 310
f 380 346 381
f 380 381 412
f 411 380 412
f 380 411 379
f 347 382 381
f 382 413 381
f 414 382 383
f 413 382 414
f 382 348 383
f 348 382 347
f 463 480 462
f 480 463 481
f 236 274 235
f 197 236 235
f 53 79 52
f 79 53 80
f 78 79 109
f 78 77 52
f 79 78 52
f 108 109 142
f 108 141 107
f 141 108 142
f 108 78 109
f 77 108 107
f 78 108 77
f 143 110 144
f 109 110 143
f 144 110 111
f 110 80 111
f 110 79 80
f 79 110 109
f 134 135 170
f 134 101 135
f 134 133 101
f 47 48 73
f 48 74 73
f 74 48 49
f 48 28 49
f 48 47 27
f 28 48 27
f 32 31 15
f 31 30 15
f 30 31 52
f 31 53 52
f 53 31 32
f 105 76 106
f 105 138 104
f 105 106 139
f 138 105 139
f 75 74 49
f 50 75 49
f 75 50 76
f 105 75 76
f 74 75 104
f 75 105 104
f 171 209 208
f 209 248 247
f 208 209 247
f 209 210 248
f 209 171 172
f 210 209 172
f 169 207 206
f 168 169 206
f 207 169 170
f 169 168 133
f 169 134 170
f 134 169 133
f 425 424 395
f 426 425 396
f 425 395 396
f 451 425 426
f 424 425 450
f 425 451 450
f 211 210 173
f 250 211 212
f 211 250 249
f 210 211 249
f 211 174 212
f 211 173 174
f 297 296 258
f 297 259 298
f 259 297 258
f 335 297 298
f 297 335 334
f 296 297 334
f 181 145 182
f 145 181 144
f 257 219 258
f 296 257 258
f 257 295 256
f 257 296 295
f 260 259 221
f 299 260 261
f 260 299 298
f 259 260 298
f 260 222 261
f 222 260 221
f 221 220 182
f 259 220 221
f 220 181 182
f 181 220 219
f 219 220 258
f 220 259 258
f 476 489 475
f 489 497 488
f 489 474 475
f 474 489 488
f 397 427 426
f 426 427 452
f 427 453 452
f 427 428 453
f 289 250 251
f 250 289 288
f 289 327 326
f 288 289 326
f 328 290 291
f 252 290 251
f 291 290 252
f 290 289 251
f 290 328 327
f 289 290 327
f 455 454 430
f 431 455 430
f 455 431 456
f 455 456 475
f 474 455 475
f 454 455 474
f 153 119 154
f 119 118 87
f 87 118 86
f 118 117 86
f 153 118 119
f 33 55 54
f 82 55 56
f 55 34 56
f 55 33 34
f 55 81 54
f 81 55 82
f 39 38 21
f 38 39 62
f 39 63 62
f 61 38 62
f 38 61 60
f 89 61 62
f 60 61 88
f 61 89 88
f 8 9 21
f 8 2 9
f 2 8 7
f 19 18 7
f 8 19 7
f 162 126 127
f 161 126 162
f 126 94 127
f 126 93 94
f 161 198 160
f 198 197 160
f 198 161 199
f 198 236 197
f 197 159 160
f 159 158 123
f 202 164 165
f 203 202 165
f 164 201 163
f 201 200 163
f 202 201 164
f 201 202 240
f 201 240 239
f 200 201 239
f 241 279 240
f 202 241 240
f 241 203 242
f 241 202 203
f 278 317 316
f 279 317 278
f 317 353 316
f 353 317 354
f 192 191 154
f 230 192 231
f 230 231 269
f 191 230 229
f 230 191 192
f 268 230 269
f 229 230 268
f 233 234 272
f 234 273 272
f 273 234 235
f 234 233 195
f 93 92 64
f 64 92 63
f 92 91 63
f 91 92 123
f 472 451 452
f 451 472 471
f 472 487 471
f 473 472 452
f 487 472 473
f 468 446 447
f 446 420 447
f 446 468 467
f 445 446 467
f 446 419 420
f 419 446 445
f 469 485 468
f 469 447 448
f 469 468 447
f 470 469 448
f 485 469 470
f 357 358 391
f 357 391 390
f 356 357 390
f 243 281 242
f 244 243 205
f 318 317 279
f 355 318 319
f 318 355 354
f 317 318 354
f 204 203 166
f 205 204 167
f 204 166 167
f 243 204 205
f 203 204 242
f 204 243 242
f 266 304 265
f 305 304 266
f 304 303 265
f 303 304 341
f 377 342 343
f 342 305 343
f 342 377 341
f 304 342 341
f 342 304 305
f 460 461 479
f 478 460 479
f 460 478 459
f 436 460 459
f 461 460 437
f 460 436 437
f 459 477 458
f 478 477 459
f 477 457 458
f 477 476 457
f 477 478 491
f 435 436 459
f 435 459 458
f 434 435 458
f 435 434 406
f 436 408 437
f 482 493 481
f 482 483 494
f 493 482 494
f 466 482 465
f 482 466 483
f 309 270 271
f 231 270 269
f 270 232 271
f 232 270 231
f 308 309 346
f 308 270 309
f 308 307 269
f 270 308 269
f 348 349 383
f 349 348 312
f 349 384 383
f 313 349 312
f 348 311 312
f 311 273 312
f 311 347 310
f 311 348 347
f 272 311 310
f 273 311 272
f 463 464 481
f 482 464 465
f 464 482 481
f 464 442 465
f 439 440 462
f 440 463 462
f 440 439 412
f 413 440 412
f 351 315 352
f 275 313 274
f 236 275 274
f 181 180 144
f 143 180 179
f 180 143 144
f 180 181 219
f 398 427 397
f 399 398 365
f 398 399 428
f 427 398 428
f 398 364 365
f 398 397 364
f 117 152 151
f 152 188 151
f 118 152 117
f 152 118 153
f 40 41 64
f 40 64 63
f 39 40 63
f 41 40 22
f 40 21 22
f 40 39 21
f 20 8 21
f 20 19 8
f 38 20 21
f 18 36 35
f 19 36 18
f 36 58 35
f 58 36 59
f 126 125 93
f 125 92 93
f 125 161 160
f 125 126 161
f 198 237 236
f 237 275 236
f 238 237 199
f 237 198 199
f 196 159 197
f 196 197 235
f 158 196 195
f 159 196 158
f 234 196 235
f 196 234 195
f 190 153 154
f 191 190 154
f 190 229 228
f 190 191 229
f 358 321 322
f 357 321 358
f 321 283 322
f 281 280 242
f 280 241 242
f 280 281 319
f 318 280 319
f 241 280 279
f 280 318 279
f 490 477 491
f 498 490 491
f 490 489 476
f 477 490 476
f 490 498 497
f 489 490 497
f 408 409 437
f 409 408 377
f 437 409 410
f 409 378 410
f 409 377 378
f 377 376 341
f 408 376 377
f 376 408 375
f 376 340 341
f 340 376 375
f 435 407 436
f 407 408 436
f 408 407 375
f 407 435 406
f 374 407 406
f 407 374 375
f 380 345 346
f 345 308 346
f 345 379 344
f 345 380 379
f 307 345 344
f 308 345 307
f 441 464 463
f 440 441 463
f 464 441 442
f 442 441 414
f 441 413 414
f 441 440 413
f 351 314 315
f 275 314 313
f 349 350 384
f 350 349 313
f 314 350 313
f 350 314 351
f 416 415 384
f 415 442 414
f 415 414 383
f 384 415 383
f 442 443 465
f 415 443 442
f 443 415 416
f 443 466 465
f 466 443 444
f 385 416 384
f 350 385 384
f 385 350 351
f 444 417 418
f 417 387 418
f 443 417 444
f 417 443 416
f 257 218 219
f 218 180 219
f 217 218 256
f 218 257 256
f 218 217 179
f 180 218 179
f 37 36 19
f 37 20 38
f 20 37 19
f 37 38 60
f 37 60 59
f 36 37 59
f 125 124 92
f 124 159 123
f 92 124 123
f 159 124 160
f 124 125 160
f 152 189 188
f 189 227 188
f 189 152 153
f 190 189 153
f 227 189 228
f 189 190 228
f 321 282 283
f 243 282 281
f 282 244 283
f 282 243 244
f 320 357 356
f 320 321 357
f 320 356 319
f 320 282 321
f 281 320 319
f 282 320 281
f 237 276 275
f 276 314 275
f 276 238 277
f 276 237 238
f 315 276 277
f 314 276 315
f 387 386 352
f 417 386 387
f 386 351 352
f 386 385 351
f 385 386 416
f 386 417 416
